<svg width="24" height="33" viewBox="0 0 24 33" fill="none" xmlns="http://www.w3.org/2000/svg">
<path d="M1 5.30319L3.52459 21.1036C3.81311 24.2548 4.36612 26.1048 4.60656 26.6359C5.35792 28.5095 8.38443 32.2037 14.4795 31.9912C20.5746 31.7788 22.6995 25.3524 23 22.1658L19.168 17.5629C18.4317 17.5039 15.9402 17.2885 11.8648 16.899C10.8549 19.8732 14.6598 21.1478 16.6885 21.4134V22.1658L13.127 21.1036C13.0219 21.8707 12.3246 23.3962 10.377 23.3608C8.42951 23.3254 7.79235 21.8412 7.71721 21.1036C7.71721 21.1036 5.41803 8.4013 4.60656 5.30319C3.27213 3.53284 1.64617 4.56554 1 5.30319Z" fill="#C7CACC"/>
<path d="M10.6475 22.6084C11.9098 22.1127 12.3456 21.2806 12.4057 20.9265C11.9399 20.6462 10.9361 19.7493 10.6475 18.4038C10.359 17.0583 11.1885 16.3679 11.6393 16.1908C11.7145 16.0286 11.8197 15.5004 11.6393 14.686C11.459 13.8717 10.7227 13.5206 10.377 13.4468C8.7541 13.199 7.95765 14.1697 7.76229 14.686C7.88251 15.7335 8.16803 18.3064 8.34836 20.2184C8.57377 22.6084 9.92623 22.4756 10.6475 22.6084Z" fill="#C7CACC"/>
<path d="M13.082 12.0748C12.1082 12.6767 12.3156 14.9516 12.541 16.0138L16.4631 16.4564L15.6967 12.5174C15.2309 12.119 14.0557 11.4729 13.082 12.0748Z" fill="#C7CACC"/>
<path d="M16.7336 12.8272L17.1393 16.4564C18.2934 16.5256 19.2732 17.0458 19.6189 17.2973L21.6475 19.8201L21.1967 15.3942C21.347 11.3076 21.6475 3.00173 21.6475 2.47063C21.6475 1.93952 21.1667 1.42317 20.9262 1.23138C19.3033 0.55865 18.4467 1.51169 18.2213 2.0723L16.7336 12.8272Z" fill="#C7CACC"/>
<path d="M1 5.30319L3.52459 21.1036C3.81311 24.2548 4.36612 26.1048 4.60656 26.6359C5.35792 28.5095 8.38443 32.2037 14.4795 31.9912C20.5746 31.7788 22.6995 25.3524 23 22.1658L19.168 17.5629C18.4317 17.5039 15.9402 17.2885 11.8648 16.899C10.8549 19.8732 14.6598 21.1478 16.6885 21.4134V22.1658L13.127 21.1036C13.0219 21.8707 12.3246 23.3962 10.377 23.3608C8.42951 23.3254 7.79235 21.8412 7.71721 21.1036C7.71721 21.1036 5.41803 8.4013 4.60656 5.30319C3.27213 3.53284 1.64617 4.56554 1 5.30319Z" stroke="#141414"/>
<path d="M1 5.30319L3.52459 21.1036C3.81311 24.2548 4.36612 26.1048 4.60656 26.6359C5.35792 28.5095 8.38443 32.2037 14.4795 31.9912C20.5746 31.7788 22.6995 25.3524 23 22.1658L19.168 17.5629C18.4317 17.5039 15.9402 17.2885 11.8648 16.899C10.8549 19.8732 14.6598 21.1478 16.6885 21.4134V22.1658L13.127 21.1036C13.0219 21.8707 12.3246 23.3962 10.377 23.3608C8.42951 23.3254 7.79235 21.8412 7.71721 21.1036C7.71721 21.1036 5.41803 8.4013 4.60656 5.30319C3.27213 3.53284 1.64617 4.56554 1 5.30319Z" stroke="#141414" stroke-opacity="0.2"/>
<path d="M10.6475 22.6084C11.9098 22.1127 12.3456 21.2806 12.4057 20.9265C11.9399 20.6462 10.9361 19.7493 10.6475 18.4038C10.359 17.0583 11.1885 16.3679 11.6393 16.1908C11.7145 16.0286 11.8197 15.5004 11.6393 14.686C11.459 13.8717 10.7227 13.5206 10.377 13.4468C8.7541 13.199 7.95765 14.1697 7.76229 14.686C7.88251 15.7335 8.16803 18.3064 8.34836 20.2184C8.57377 22.6084 9.92623 22.4756 10.6475 22.6084Z" stroke="#141414"/>
<path d="M10.6475 22.6084C11.9098 22.1127 12.3456 21.2806 12.4057 20.9265C11.9399 20.6462 10.9361 19.7493 10.6475 18.4038C10.359 17.0583 11.1885 16.3679 11.6393 16.1908C11.7145 16.0286 11.8197 15.5004 11.6393 14.686C11.459 13.8717 10.7227 13.5206 10.377 13.4468C8.7541 13.199 7.95765 14.1697 7.76229 14.686C7.88251 15.7335 8.16803 18.3064 8.34836 20.2184C8.57377 22.6084 9.92623 22.4756 10.6475 22.6084Z" stroke="#141414" stroke-opacity="0.2"/>
<path d="M13.082 12.0748C12.1082 12.6767 12.3156 14.9516 12.541 16.0138L16.4631 16.4564L15.6967 12.5174C15.2309 12.119 14.0557 11.4729 13.082 12.0748Z" stroke="#141414"/>
<path d="M13.082 12.0748C12.1082 12.6767 12.3156 14.9516 12.541 16.0138L16.4631 16.4564L15.6967 12.5174C15.2309 12.119 14.0557 11.4729 13.082 12.0748Z" stroke="#141414" stroke-opacity="0.2"/>
<path d="M16.7336 12.8272L17.1393 16.4564C18.2934 16.5256 19.2732 17.0458 19.6189 17.2973L21.6475 19.8201L21.1967 15.3942C21.347 11.3076 21.6475 3.00173 21.6475 2.47063C21.6475 1.93952 21.1667 1.42317 20.9262 1.23138C19.3033 0.55865 18.4467 1.51169 18.2213 2.0723L16.7336 12.8272Z" stroke="#141414"/>
<path d="M16.7336 12.8272L17.1393 16.4564C18.2934 16.5256 19.2732 17.0458 19.6189 17.2973L21.6475 19.8201L21.1967 15.3942C21.347 11.3076 21.6475 3.00173 21.6475 2.47063C21.6475 1.93952 21.1667 1.42317 20.9262 1.23138C19.3033 0.55865 18.4467 1.51169 18.2213 2.0723L16.7336 12.8272Z" stroke="#141414" stroke-opacity="0.2"/>
</svg>
